<?xml version="1.0" encoding="utf-8"?>
<!-- Generator: Adobe Illustrator 16.0.0, SVG Export Plug-In . SVG Version: 6.00 Build 0)  -->
<!DOCTYPE svg PUBLIC "-//W3C//DTD SVG 1.1//EN" "http://www.w3.org/Graphics/SVG/1.1/DTD/svg11.dtd">
<svg version="1.1" id="图层_1" xmlns="http://www.w3.org/2000/svg" xmlns:xlink="http://www.w3.org/1999/xlink" x="0px" y="0px"
	 width="200.195px" height="200px" viewBox="0 0 200.195 200" enable-background="new 0 0 200.195 200" xml:space="preserve">
<path fill="#FFFFFF" d="M70.004,96.981c1.476,0,2.945,0.078,4.406,0.231c4.716-9.872,13.157-17.537,23.287-21.358
	c-4.009-13.729-16.712-23.793-31.724-23.793c-18.223,0-33.041,14.824-33.041,33.05c0,8.673,3.362,16.586,8.854,22.489
	C49.304,100.994,59.185,96.981,70.004,96.981z"/>
<path fill="#FFFFFF" d="M66.008,42.355c3.561,0,6.388-2.888,6.388-6.452V25.59c0-3.56-2.822-6.447-6.388-6.447
	c-3.563,0-6.391,2.883-6.391,6.447v10.313C59.617,39.467,62.444,42.355,66.008,42.355z"/>
<path fill="#FFFFFF" d="M105.322,54.875l7.294-7.298c2.521-2.513,2.521-6.596,0-9.118c-2.513-2.513-6.597-2.513-9.118,0
	l-7.289,7.294c-2.517,2.521-2.517,6.605,0,9.122C98.722,57.392,102.805,57.392,105.322,54.875z"/>
<path fill="#FFFFFF" d="M16.765,78.637H6.448C2.884,78.637,0,81.459,0,85.024c0,3.564,2.879,6.391,6.448,6.391h10.317
	c3.56,0,6.447-2.827,6.447-6.391C23.212,81.459,20.325,78.637,16.765,78.637z"/>
<path fill="#FFFFFF" d="M35.733,45.753l-7.294-7.29c-2.518-2.517-6.604-2.517-9.122,0c-2.519,2.517-2.518,6.601,0,9.113l7.298,7.298
	c2.517,2.517,6.604,2.517,9.118,0C38.25,52.358,38.25,48.274,35.733,45.753z"/>
<path fill="#FFFFFF" d="M163.221,104.396c-6.584,0-12.675,1.729-17.996,4.756c-0.559,0.313-1.183,0.476-1.811,0.476
	c-0.458,0-0.929-0.092-1.37-0.271c-1.032-0.42-1.832-1.278-2.146-2.353c-3.542-11.896-14.51-20.556-27.549-20.556
	c-13.803,0-25.268,9.711-28.085,22.667c-0.224,1.017-0.873,1.905-1.775,2.417c-0.563,0.313-1.191,0.476-1.819,0.476
	c-0.393,0-0.794-0.069-1.169-0.19c-2.975-1.008-6.168-1.563-9.493-1.563c-16.207,0-29.337,12.979-29.337,28.972
	c0,32.121,22.633,41.64,40.989,41.64h78.916c21.771,0,39.424-17.673,39.424-39.444C200,120.975,183.667,104.396,163.221,104.396z"/>
</svg>
