<?xml version="1.0" encoding="utf-8"?>
<!-- Generator: Adobe Illustrator 16.0.0, SVG Export Plug-In . SVG Version: 6.00 Build 0)  -->
<!DOCTYPE svg PUBLIC "-//W3C//DTD SVG 1.1//EN" "http://www.w3.org/Graphics/SVG/1.1/DTD/svg11.dtd">
<svg version="1.1" id="图层_1" xmlns="http://www.w3.org/2000/svg" xmlns:xlink="http://www.w3.org/1999/xlink" x="0px" y="0px"
	 width="200px" height="200px" viewBox="0 0 200 200" enable-background="new 0 0 200 200" xml:space="preserve">
<path fill="#FFFFFF" d="M106.339,116.808c-4.522-5.059-9.044-10.097-13.545-15.155c1.363-2.83,2.188-5.926,2.375-9.045
	c0.639-11.872-10.117-20.461-21.04-21.06c-11.872-0.64-20.441,10.117-21.039,21.06c0.186,3.282,1.012,6.277,2.292,8.963
	c-6.483,7.513-12.967,15.03-19.449,22.567c-2.87-2.023-6.36-3.283-10.324-3.49c-10.199-0.557-17.571,8.714-18.086,18.108
	c-0.557,10.199,8.713,17.591,18.086,18.107c10.199,0.558,17.592-8.713,18.086-18.107c-0.186-3.428-1.176-6.483-2.746-9.105
	c4.935-5.74,9.869-11.46,14.824-17.199c1.342-1.569,2.705-3.139,4.068-4.708c3.654,3.469,8.568,5.637,14.288,5.946
	c5.72,0.311,10.654-2.044,14.33-5.76l12.698,14.185L106.339,116.808L106.339,116.808z M164.357,35.994
	c-15.857-0.867-27.337,13.813-28.122,28.762c0.558,10.695,5.348,18.272,11.87,22.774c-6.339,9.724-12.675,19.47-19.014,29.195
	c-3.552-1.879-7.495-3.035-11.48-3.262c-3.654-0.207-6.999,0.619-10.014,2.064l-11.604,11.747c-1.776,3.552-2.89,7.475-3.098,11.46
	c0.765,14.288,10.736,24.488,24.715,25.252c13.938,0.765,24.013-12.14,24.715-25.252c0.393-7.309-2.767-13.586-7.641-18.045
	c6.503-9.992,13.027-19.985,19.534-29.979c16.001,5.905,37.021-2.747,38.258-25.954C193.325,48.528,178.955,36.799,164.357,35.994z"
	/>
</svg>
