<?xml version="1.0" encoding="utf-8"?>
<!-- Generator: Adobe Illustrator 16.0.0, SVG Export Plug-In . SVG Version: 6.00 Build 0)  -->
<!DOCTYPE svg PUBLIC "-//W3C//DTD SVG 1.1//EN" "http://www.w3.org/Graphics/SVG/1.1/DTD/svg11.dtd">
<svg version="1.1" id="图层_1" xmlns="http://www.w3.org/2000/svg" xmlns:xlink="http://www.w3.org/1999/xlink" x="0px" y="0px"
	 width="213.281px" height="200px" viewBox="0 0 213.281 200" enable-background="new 0 0 213.281 200" xml:space="preserve">
<path fill="#FFFFFF" d="M55.347,81.213l46.76,22.88V50.36L55.333,28.013v53.2H55.347z M110.906,50.907v53.267l46.134-22.347V28.36
	l-46.134,22.534V50.907z M106.84,0L61.307,21.733l45.533,21.733l44.934-21.733L106.827,0H106.84z M0,172.641l46.76,22.894V141.8
	L0,119.453v53.199V172.641z M55.56,142.334V195.6l46.133-22.346v-53.467L55.56,142.334z M51.493,91.427L5.96,113.16l45.533,21.746
	l44.934-21.732L51.493,91.44V91.427z M111.627,172.641l46.76,22.894V141.8l-46.76-22.347v53.199V172.641z M167.188,142.334V195.6
	l46.146-22.346v-53.467L167.2,142.334H167.188z M163.12,91.427L117.6,113.16l45.533,21.746l44.934-21.732L163.133,91.44
	L163.12,91.427z"/>
</svg>
