<?xml version="1.0" encoding="utf-8"?>
<!-- Generator: Adobe Illustrator 16.0.0, SVG Export Plug-In . SVG Version: 6.00 Build 0)  -->
<!DOCTYPE svg PUBLIC "-//W3C//DTD SVG 1.1//EN" "http://www.w3.org/Graphics/SVG/1.1/DTD/svg11.dtd">
<svg version="1.1" id="图层_1" xmlns="http://www.w3.org/2000/svg" xmlns:xlink="http://www.w3.org/1999/xlink" x="0px" y="0px"
	 width="200px" height="200px" viewBox="0 0 200 200" enable-background="new 0 0 200 200" xml:space="preserve">
<path fill="#FFFFFF" d="M193.405,163.057L148.52,77.805c-2.438-4.646-6.424-4.646-8.861,0l-20.259,38.475
	c-2.45,4.659-6.424,4.659-8.875,0L75.301,49.357c-2.438-4.658-6.398-4.658-8.861,0L6.601,163.057
	c-2.449,4.647,0.356,8.43,6.271,8.43h77.472h49.24h47.55C193.049,171.486,195.841,167.702,193.405,163.057 M116.683,59.742
	c9.696,0,17.529-6.995,17.529-15.614c0-8.619-7.833-15.613-17.529-15.613c-9.673,0-17.518,6.994-17.518,15.613
	C99.165,52.747,107.01,59.742,116.683,59.742"/>
</svg>
