<?xml version="1.0" encoding="utf-8"?>
<!-- Generator: Adobe Illustrator 16.0.0, SVG Export Plug-In . SVG Version: 6.00 Build 0)  -->
<!DOCTYPE svg PUBLIC "-//W3C//DTD SVG 1.1//EN" "http://www.w3.org/Graphics/SVG/1.1/DTD/svg11.dtd">
<svg version="1.1" id="图层_1" xmlns="http://www.w3.org/2000/svg" xmlns:xlink="http://www.w3.org/1999/xlink" x="0px" y="0px"
	 width="200px" height="200px" viewBox="0 0 200 200" enable-background="new 0 0 200 200" xml:space="preserve">
<path fill="#FFFFFF" d="M186.592,158.457L144.98,79.424c-2.26-4.308-5.955-4.308-8.215,0l-18.781,35.668
	c-2.271,4.319-5.955,4.319-8.227,0L77.103,53.051c-2.26-4.318-5.931-4.318-8.215,0L13.414,158.457
	c-2.27,4.309,0.33,7.814,5.813,7.814h71.821h45.647h44.082C186.262,166.271,188.85,162.764,186.592,158.457 M115.466,62.678
	c8.989,0,16.251-6.484,16.251-14.475c0-7.99-7.262-14.474-16.251-14.474c-8.968,0-16.24,6.484-16.24,14.474
	C99.226,56.194,106.498,62.678,115.466,62.678"/>
</svg>
