<?xml version="1.0" encoding="utf-8"?>
<!-- Generator: Adobe Illustrator 16.0.0, SVG Export Plug-In . SVG Version: 6.00 Build 0)  -->
<!DOCTYPE svg PUBLIC "-//W3C//DTD SVG 1.1//EN" "http://www.w3.org/Graphics/SVG/1.1/DTD/svg11.dtd">
<svg version="1.1" id="图层_1" xmlns="http://www.w3.org/2000/svg" xmlns:xlink="http://www.w3.org/1999/xlink" x="0px" y="0px"
	 width="200px" height="200px" viewBox="0 0 200 200" enable-background="new 0 0 200 200" xml:space="preserve">
<path fill="#FFFFFF" d="M56.619,156.119c-2.847,0-5.485-0.395-7.897-1.186c-5.993-1.963-10.657-6.33-13.862-12.98
	c-4.962-10.299-5.196-20.574-0.696-30.547c1.272-2.816,3.237-6.221,5.319-9.824c5.55-9.609,13.151-22.769,9.831-29.914
	c-1.273-2.741-3.374-4.922-5.595-7.231c-3.898-4.05-8.348-11.368-7.571-15.97c0.649-2.528,1.8-3.251,2.641-3.963
	c0.842-0.713,1.991-1.699,3.989-2.022c1.999-0.324,6.053,0,6.053,0c15.344,1.811,29.376,7.515,40.578,16.496
	c11.61,9.31,19.838,21.913,23.789,36.445c3.844,14.132,0.256,27.552-10.369,38.81c-8.333,8.828-21.092,16.177-35.007,20.16
	C63.803,155.543,60.059,156.119,56.619,156.119z"/>
<path fill="#FFFFFF" d="M42.434,51.881c0.717,2.16,2.27,5.166,5.489,8.51c2.342,2.434,4.997,5.193,6.682,8.818
	c4.598,9.896-3.535,23.977-10.07,35.291c-2.006,3.475-3.901,6.754-5.053,9.307c-3.811,8.442-3.603,16.821,0.633,25.613
	c3.527,7.319,8.858,10.895,16.457,10.896c2.881,0,6.087-0.515,9.645-1.532c19.106-5.472,49.316-22.543,41.354-51.83
	c-6.922-25.456-28.132-43.651-55.806-48.17c-1.826-0.293-7.446-1.03-8.354-0.382C42.503,49.05,42.341,51.599,42.434,51.881z
	 M148.656,157.656c-3.59,0-7.495-1.106-11.467-3.322c-4.68-2.609-8.933-6.488-11.978-10.919c-3.346-4.869-4.877-9.997-4.313-14.44
	c0.854-6.699,3.804-12.756,6.658-18.613c3.219-6.604,6.258-12.843,6.027-19.363c0,0,1.293-3.794,2.721-4.59
	c1.426-0.795,3.981,2.25,3.981,2.25c2.433,3.719,5.935,7.815,9.644,12.152c9.35,10.938,19.945,23.334,18.764,36.131
	c-0.59,6.412-4.133,12.281-10.525,17.445C155.469,156.566,152.217,157.656,148.656,157.656z"/>
<path fill="#FFFFFF" d="M139.07,97.202c-1.092,5.537-3.623,10.731-6.094,15.8c-2.762,5.668-5.369,11.02-6.096,16.734
	c-0.781,6.147,5.16,14.82,13.245,19.332c2.674,1.49,9.413,4.539,14.254,0.629c5.149-4.16,7.869-8.514,8.313-13.311
	c0.947-10.262-8.771-21.63-17.346-31.658C143.137,102.141,140.994,99.634,139.07,97.202z"/>
<path fill="#FFFFFF" d="M82.186,128.727l-3.704-4.508c0.301-0.248,0.604-0.496,0.91-0.746c8.622-7.057,14.516-12.705,11.8-21.144
	l5.554-1.787c1.843,5.729,0.967,11.284-2.605,16.511c-2.926,4.282-7.245,7.816-11.054,10.934
	C82.785,128.234,82.484,128.48,82.186,128.727z"/>
</svg>
