<?xml version="1.0" encoding="utf-8"?>
<!-- Generator: Adobe Illustrator 16.0.0, SVG Export Plug-In . SVG Version: 6.00 Build 0)  -->
<!DOCTYPE svg PUBLIC "-//W3C//DTD SVG 1.1//EN" "http://www.w3.org/Graphics/SVG/1.1/DTD/svg11.dtd">
<svg version="1.1" id="图层_1" xmlns="http://www.w3.org/2000/svg" xmlns:xlink="http://www.w3.org/1999/xlink" x="0px" y="0px"
	 width="200px" height="200px" viewBox="0 0 200 200" enable-background="new 0 0 200 200" xml:space="preserve">
<path fill="#FFFFFF" d="M84.316,136.444l6-13.813c0,0,5.318-13.569-13.047-10.32l-51.587,12.974c0,0-11.714,3.335-6.25,13.036
	l29.554,47.414c0,0,8.933,7.742,14.594-1.894l5.903-13.863c-0.01-0.007,96.61,34.736,116.806-62.475
	C186.287,107.502,162.409,163.597,84.316,136.444z M116.41,62.846l-6.364,13.679c0,0-5.676,13.437,12.785,10.621l51.919-11.728
	c0,0,11.808-3.062,6.578-12.895l-28.26-48.078c0,0-8.758-7.982-14.653,1.507l-6.271,13.747c-0.016,0-95.695-37.017-118.435,59.665
	C13.712,89.363,39.055,33.857,116.41,62.846z"/>
</svg>
