<?xml version="1.0" encoding="utf-8"?>
<!-- Generator: Adobe Illustrator 16.0.0, SVG Export Plug-In . SVG Version: 6.00 Build 0)  -->
<!DOCTYPE svg PUBLIC "-//W3C//DTD SVG 1.1//EN" "http://www.w3.org/Graphics/SVG/1.1/DTD/svg11.dtd">
<svg version="1.1" id="图层_1" xmlns="http://www.w3.org/2000/svg" xmlns:xlink="http://www.w3.org/1999/xlink" x="0px" y="0px"
	 width="200px" height="200px" viewBox="0 0 200 200" enable-background="new 0 0 200 200" xml:space="preserve">
<path fill="#FFFFFF" d="M134.805,101.077c0,0,31.304-22.522,31.161-41.245c-0.132-16.237-13.959-29.397-31.161-29.397
	c-17.21,0-30.151,13.193-31.17,29.397C102.463,78.555,134.805,101.077,134.805,101.077L134.805,101.077L134.805,101.077z
	 M134.291,45.72c7.532,0,13.631,5.934,13.631,13.248s-6.099,13.248-13.631,13.248c-7.533,0-13.643-5.934-13.643-13.248
	S126.758,45.72,134.291,45.72L134.291,45.72L134.291,45.72z M95.149,126.259c1.083-1.565,2.036-3.208,2.869-4.904
	c2.648-5.081,4.27-10.227,4.226-15.176c-0.186-22.324-19.927-40.423-44.517-40.423c-0.055,0-0.11,0-0.165,0
	c-0.066,0-0.121,0-0.175,0c-24.492,0-44.342,17.77-44.342,39.7c0,1.16,0.054,2.299,0.165,3.438c0.131,2.124,0.547,4.27,1.214,6.427
	c1.249,4.367,3.308,8.44,6.022,12.087c12.625,18.942,37.281,35.484,37.281,35.484S82.581,145.682,95.149,126.259L95.149,126.259
	L95.149,126.259z M56.994,118.736c-10.04,0-18.186-7.904-18.186-17.659c0-9.756,8.146-17.661,18.186-17.661
	c10.05,0,18.185,7.905,18.185,17.661C75.179,110.832,67.044,118.736,56.994,118.736L56.994,118.736L56.994,118.736z
	 M175.129,128.931c-45.042-8.289-36.294-19.029-36.294-19.029h-9.098c-4.873,28.083,72.786,17.803,42.589,41.583
	c-26.725,21.055-90.162,2.574-90.162,2.574l-9.087,8.834C174.506,196.133,210.144,135.379,175.129,128.931L175.129,128.931
	L175.129,128.931z"/>
</svg>
