<?xml version="1.0" encoding="utf-8"?>
<!-- Generator: Adobe Illustrator 16.0.0, SVG Export Plug-In . SVG Version: 6.00 Build 0)  -->
<!DOCTYPE svg PUBLIC "-//W3C//DTD SVG 1.1//EN" "http://www.w3.org/Graphics/SVG/1.1/DTD/svg11.dtd">
<svg version="1.1" id="图层_1" xmlns="http://www.w3.org/2000/svg" xmlns:xlink="http://www.w3.org/1999/xlink" x="0px" y="0px"
	 width="200px" height="200px" viewBox="0 0 200 200" enable-background="new 0 0 200 200" xml:space="preserve">
<path fill="#FFFFFF" d="M42.521,96.661h54.101v32.585c0,1.868,1.507,3.381,3.37,3.381l0,0c1.862,0,3.375-1.514,3.375-3.381V96.661
	h54.107v35.968c0,1.862,1.513,3.381,3.377,3.381l0,0c1.863,0,3.387-1.521,3.387-3.381v-37.16c0-3.073-2.496-5.576-5.563-5.576
	h-55.309V75.137c0-1.869-1.515-3.382-3.375-3.382l0,0c-1.863,0-3.37,1.514-3.37,3.382v14.755H41.326
	c-3.078,0-5.576,2.503-5.576,5.576v37.159c0,1.862,1.52,3.382,3.388,3.382l0,0c1.862,0,3.382-1.52,3.382-3.382L42.521,96.661
	L42.521,96.661L42.521,96.661z M56.041,141.464H22.236c-1.875,0-3.381,1.512-3.381,3.375v32.777c0,1.868,1.507,3.393,3.381,3.393
	h33.805c1.868,0,3.382-1.525,3.382-3.393v-32.777C59.423,142.972,57.909,141.464,56.041,141.464L56.041,141.464z M116.905,141.464
	H83.095c-1.869,0-3.382,1.512-3.382,3.375v32.777c0,1.868,1.514,3.393,3.382,3.393h33.811c1.858,0,3.377-1.525,3.377-3.393v-32.777
	C120.275,142.972,118.764,141.464,116.905,141.464L116.905,141.464z M177.765,141.464h-33.821c-1.851,0-3.371,1.512-3.371,3.375
	v32.777c0,1.868,1.521,3.393,3.371,3.393h33.821c1.856,0,3.382-1.525,3.382-3.393v-32.777
	C181.146,142.972,179.621,141.464,177.765,141.464L177.765,141.464L177.765,141.464z M72.95,66.232h54.096
	c1.861,0,3.382-1.513,3.382-3.382V22.374c0-1.87-1.521-3.382-3.382-3.382H72.95c-1.869,0-3.381,1.513-3.381,3.382v40.47
	C69.569,64.719,71.08,66.232,72.95,66.232L72.95,66.232L72.95,66.232z"/>
</svg>
