<?xml version="1.0" encoding="utf-8"?>
<!-- Generator: Adobe Illustrator 16.0.0, SVG Export Plug-In . SVG Version: 6.00 Build 0)  -->
<!DOCTYPE svg PUBLIC "-//W3C//DTD SVG 1.1//EN" "http://www.w3.org/Graphics/SVG/1.1/DTD/svg11.dtd">
<svg version="1.1" id="图层_1" xmlns="http://www.w3.org/2000/svg" xmlns:xlink="http://www.w3.org/1999/xlink" x="0px" y="0px"
	 width="200px" height="200px" viewBox="0 0 200 200" enable-background="new 0 0 200 200" xml:space="preserve">
<path fill="#009924" d="M178.37,60.91H21.63c-3.611,0-6.557,2.922-6.557,6.533v111.034c0,3.588,2.945,6.533,6.557,6.533h156.74
	c3.61,0,6.558-2.922,6.558-6.533V67.443C184.927,63.855,181.98,60.91,178.37,60.91z M47.737,28.246h104.525
	c1.782,0,3.256-1.473,3.256-3.302v-6.461c0-1.853-1.449-3.302-3.256-3.302H47.737c-1.782,0-3.254,1.473-3.254,3.302v6.461
	C44.459,26.796,45.932,28.246,47.737,28.246z M31.417,51.099h137.166c1.806,0,3.278-1.473,3.278-3.302v-6.462
	c0-1.853-1.473-3.302-3.278-3.302H31.417c-1.805,0-3.278,1.473-3.278,3.302v6.462C28.139,49.649,29.612,51.099,31.417,51.099z"/>
<path fill="#FFFFFF" d="M140.29,123.648c-1.021-0.998-2.21-1.758-3.587-2.305c-1.354-0.546-2.805-0.83-4.324-0.83h-1.877
	l-7.459-13.139c1.164-1.021,2.066-2.209,2.756-3.563c0.689-1.377,1.021-2.852,1.021-4.466c0-1.473-0.285-2.851-0.855-4.181
	c-0.57-1.306-1.377-2.47-2.398-3.444c-1.021-0.974-2.209-1.758-3.539-2.304c-1.332-0.546-2.78-0.832-4.371-0.832
	c-1.567,0-3.018,0.285-4.371,0.832c-1.331,0.546-2.495,1.33-3.492,2.304c-0.998,0.998-1.782,2.138-2.354,3.444
	c-0.568,1.307-0.854,2.708-0.854,4.181c0,1.615,0.333,3.112,0.975,4.466c0.666,1.354,1.567,2.565,2.709,3.563l-13.52,29.197
	c-0.522-0.096-0.95-0.143-1.259-0.143c-0.831,0-1.639,0.094-2.399,0.309c-0.76,0.214-1.473,0.451-2.162,0.76l-13.446-16.391
	c0.523-0.855,0.95-1.782,1.259-2.779c0.309-0.975,0.475-2.02,0.475-3.064c0-1.474-0.285-2.852-0.855-4.182
	c-0.57-1.307-1.377-2.447-2.399-3.421c-1.021-0.95-2.209-1.71-3.54-2.28c-1.33-0.547-2.803-0.832-4.371-0.832
	c-1.521,0-2.97,0.285-4.324,0.832s-2.542,1.307-3.54,2.28c-0.998,0.95-1.782,2.091-2.352,3.421c-0.57,1.307-0.855,2.708-0.855,4.182
	c0,1.473,0.285,2.851,0.855,4.133c0.57,1.283,1.354,2.424,2.352,3.373c0.998,0.951,2.186,1.711,3.54,2.281
	c1.354,0.547,2.803,0.831,4.324,0.831c0.309,0,0.594-0.022,0.855-0.048c0.261-0.023,0.522-0.047,0.784-0.047l15.323,17.912
	c-0.261,0.498-0.428,1.068-0.522,1.662c-0.071,0.617-0.119,1.236-0.119,1.899c0,1.474,0.285,2.853,0.855,4.183
	c0.57,1.307,1.354,2.447,2.352,3.42c0.998,0.951,2.186,1.711,3.54,2.281c1.354,0.547,2.803,0.832,4.324,0.832
	s2.97-0.285,4.324-0.832s2.542-1.308,3.54-2.281c0.998-0.949,1.781-2.09,2.353-3.42c0.569-1.308,0.854-2.709,0.854-4.183
	c0-1.211-0.188-2.375-0.594-3.444c-0.404-1.092-0.927-2.113-1.615-3.063l13.279-28.673l7.625,13.113
	c-0.57,0.854-1.045,1.805-1.425,2.851c-0.356,1.045-0.546,2.138-0.546,3.302c0,1.473,0.285,2.852,0.854,4.182
	c0.57,1.308,1.354,2.447,2.354,3.421c0.996,0.95,2.186,1.711,3.539,2.28c1.354,0.547,2.803,0.832,4.322,0.832
	c1.521,0,2.971-0.285,4.323-0.832c1.354-0.547,2.565-1.307,3.588-2.28c1.021-0.949,1.829-2.091,2.398-3.421
	c0.569-1.307,0.854-2.709,0.854-4.182c0-1.521-0.285-2.922-0.854-4.252C142.119,125.787,141.313,124.623,140.29,123.648
	L140.29,123.648z"/>
</svg>
