<?xml version="1.0" encoding="utf-8"?>
<!-- Generator: Adobe Illustrator 16.0.0, SVG Export Plug-In . SVG Version: 6.00 Build 0)  -->
<!DOCTYPE svg PUBLIC "-//W3C//DTD SVG 1.1//EN" "http://www.w3.org/Graphics/SVG/1.1/DTD/svg11.dtd">
<svg version="1.1" id="图层_1" xmlns="http://www.w3.org/2000/svg" xmlns:xlink="http://www.w3.org/1999/xlink" x="0px" y="0px"
	 width="200px" height="200px" viewBox="0 0 200 200" enable-background="new 0 0 200 200" xml:space="preserve">
<path fill="#FFFFFF" d="M33.372,123.775c-0.077-0.646-0.143-1.289-0.209-1.937c-0.259-4.376-0.209-8.46-0.039-11.754
	C36.544,71.28,68.815,48.23,69.47,48.406c-0.484,0.462-9.897,7.595-18.071,21.254c-8.168,13.373-15.097,33.271-10.74,52.729
	c14.023-4.584,20.147-13.602,25.545-31.72c2.946-9.763,5.419-23.606,11.505-35.123c5.508-11.506,14.067-20.024,13.775-19.944
	c-0.077,0.399-9.341-2.393-25.165,1.963c-15.246,3.8-37.398,16.937-46.965,36.79c-14.546,31.7-2.743,47.634,8.399,49.249
	c-1.057,11.07,0.413,24.502,6.219,33.914c3.139,2.994,7.397,2.227,9.496-2.156c-5.205-5.369-9.358-19.145-10.173-31.575
	C33.322,123.784,33.35,123.781,33.372,123.775z M69.525,48.396c0-0.005-0.011-0.005-0.022-0.005
	C69.52,48.388,69.525,48.388,69.525,48.396z"/>
<path fill="#FFFFFF" d="M129.143,34.588c0.557,0.369,1.103,0.749,1.642,1.134c3.567,2.721,6.702,5.478,9.147,7.802
	c27.859,28.396,24.493,67.807,23.922,68.181c-0.039-0.678,0.633-12.441-4.59-27.63c-5-15.003-15.873-33.427-33.846-43.129
	c-5.678,13.508-2.715,24.083,7.795,40.171c5.635,8.7,14.744,19.765,19.674,31.979c5.309,11.766,6.268,23.817,6.404,23.543
	c-0.258-0.316,8.01-5.363,15.043-20.063c7.1-13.901,11.494-39.172,2.385-59.523c-15.015-31.959-35.15-33.773-43.738-26.544
	c-7.897-8.157-19.281-16.009-30.414-17.95c-4.388,0.344-6.597,4.035-4.582,8.523c7.596-0.309,21.018,5.769,31.201,13.444
	C129.17,34.543,129.158,34.566,129.143,34.588z M163.824,111.75c0.012,0.005,0.012,0,0.021-0.012
	C163.836,111.755,163.83,111.761,163.824,111.75z"/>
<path fill="#FFFFFF" d="M156.081,153.646c-0.567,0.346-1.136,0.684-1.708,1.01c-3.934,2.07-7.717,3.729-10.822,4.951
	c-37.101,13.018-70.968-7.565-71.062-8.258c0.617,0.266,10.873,6.101,26.658,8.039c15.516,2.063,36.578,0.233,52.804-11.984
	c-9.71-11.217-20.413-13.188-39.223-10.664c-10.155,1.32-23.887,4.793-36.875,3.908c-12.767-0.344-23.959-4.806-23.771-4.563
	c0.396-0.092,1.443,9.748,11.649,22.744c9.457,12.698,30.237,27.948,52.269,28.604c34.914,0.369,44.988-17.34,42.113-28.451
	c10.618-3.641,22.428-10.631,28.833-20.004c1.531-4.188-0.838-7.862-5.7-7.994c-2.914,7.121-13.99,16.771-25.127,22.732
	C156.104,153.693,156.086,153.67,156.081,153.646z M72.461,151.311c-0.011,0.002-0.011,0.008,0,0.017
	C72.45,151.313,72.444,151.305,72.461,151.311z"/>
</svg>
