<?xml version="1.0" encoding="utf-8"?>
<!-- Generator: Adobe Illustrator 16.0.0, SVG Export Plug-In . SVG Version: 6.00 Build 0)  -->
<!DOCTYPE svg PUBLIC "-//W3C//DTD SVG 1.1//EN" "http://www.w3.org/Graphics/SVG/1.1/DTD/svg11.dtd">
<svg version="1.1" id="图层_1" xmlns="http://www.w3.org/2000/svg" xmlns:xlink="http://www.w3.org/1999/xlink" x="0px" y="0px"
	 width="200px" height="200px" viewBox="0 0 200 200" enable-background="new 0 0 200 200" xml:space="preserve">
<path fill="#FFFFFF" d="M170.393,81.221c12.854,8.861,14.717,28.741,4.053,39.405c-1.289,1.289-1.745,0.942-2.586-0.419
	c-4.271-6.924-10.409-11.17-18.493-12.453c-1.312-0.208-3.132-0.895-3.386,1.212c-0.231,1.91,1.564,1.701,2.82,1.86
	c9.838,1.247,18.309,9.785,19.795,19.959c1.625,11.138-3.682,21.795-13.02,26.063c-0.771-0.783-0.283-1.752-0.293-2.604
	c-0.094-7.605-3.371-13.701-8.803-18.792c-0.853-0.8-1.848-1.591-2.873-0.359c-0.899,1.076-0.072,1.896,0.73,2.609
	c12.995,11.575,9.612,30.422-7.349,38.265c-11.835,5.475-27.306,2.938-36.093-5.949c-3.994-4.039-6.172-8.834-6.121-14.621
	c0.075-8.256,0.067-16.515-0.019-24.771c-0.021-1.946,0.511-2.335,2.417-1.978c6.565,1.23,11.375,5.969,12.998,12.817
	c0.305,1.283-0.277,3.957,2.23,3.298c2.068-0.541,1.015-2.727,0.711-4.146c-1.783-8.313-8.02-13.941-16.729-15.113
	c-1.171-0.157-1.614-0.479-1.609-1.685c0.036-8.727,0.046-17.452-0.003-26.179c-0.011-1.902,0.945-1.24,1.953-0.995
	c7.33,1.782,13.937,0.479,19.598-4.709c0.414-0.379,0.804-0.788,1.176-1.209c0.7-0.795,0.938-1.662,0.093-2.481
	c-0.94-0.91-1.727-0.322-2.396,0.416c-2.967,3.278-6.684,5.062-11.039,5.582c-0.648,0.078-1.309,0.119-1.963,0.103
	c-6.649-0.153-7.433-0.941-7.431-7.453c0.003-12.48-0.129-24.962,0.047-37.439c0.274-19.449,20.352-32.879,38.494-25.939
	c11.41,4.365,16.486,15.778,16.803,25.455c0.082,2.522-1.311,1.563-2.529,1.2c-12.448-3.702-25.438,0.959-32.271,11.594
	c-3.145,4.891-4.502,10.255-4.094,16.055c0.051,0.741,0.212,1.483,0.4,2.205c0.227,0.867,0.873,1.183,1.723,1.037
	c0.738-0.125,1.159-0.598,1.172-1.353c0.01-0.561-0.049-1.123-0.09-1.684c-0.953-12.82,8.311-24.276,20.83-25.756
	c13.922-1.646,25.389,6.496,27.79,19.572c1.31,7.133-0.166,13.572-4.177,19.516c-0.664,0.985-1.853,2.077-0.422,3.111
	c1.598,1.156,2.287-0.482,3.033-1.479C168.049,89.55,169.426,85.583,170.393,81.221L170.393,81.221z M42.841,136.363
	c0.972-0.969,2.105-2.909,3.646-1.379c1.681,1.67-0.553,2.582-1.476,3.504c-9.018,9.006-9.372,21.732-0.799,31.047
	c11.477,12.469,34.769,12.224,45.984-0.498c3.061-3.471,5.194-7.448,5.216-12.145c0.093-20.176,0.036-40.352,0.107-60.526
	c0.007-2.09-0.896-2.104-2.398-1.613c-4.151,1.358-6.88,4.049-7.885,8.368c-0.282,1.212-0.519,2.627-2.254,2.115
	c-1.528-0.45-1.109-1.778-0.821-2.842c1.561-5.744,5.153-9.514,11.048-10.708c1.866-0.378,2.348-1.094,2.335-2.931
	C95.462,76.838,95.43,64.92,95.54,53.003c0.063-6.767-2.054-12.689-6.16-17.969c-7.483-9.62-20.13-12.962-31.317-8.296
	C46.814,31.43,40.51,42.31,41.961,54.53c1.309,11.021,10.98,20.345,22.763,22.127c1.323,0.2,3.947-0.494,3.601,1.928
	c-0.348,2.435-2.813,1.346-4.22,1.086c-12.666-2.331-21.184-9.512-24.672-22.058c-0.706-2.538-1.443-1.948-2.823-0.843
	c-7.678,6.149-10.825,14.117-9.546,23.839c0.523,3.979,2.075,7.565,4.38,10.837c0.688,0.977,1.803,2.07,0.292,3.087
	c-1.485,1-2.127-0.482-2.843-1.401c-0.516-0.664-0.958-1.388-1.397-2.107c-1.819-2.983-2.772-6.31-3.637-9.701
	c-12.275,7.886-15.281,27.542-3.741,39.535c1.525,1.584,1.777-0.016,2.298-0.83c4.507-7.059,10.9-11.201,19.171-12.442
	c1.118-0.168,2.435-0.353,2.728,1.179c0.302,1.575-0.967,1.77-2.116,1.973c-12.441,2.207-19.944,10.553-20.861,23.193
	c-0.676,9.32,5.285,19.506,13.759,22.993C34.413,148.652,37.238,141.95,42.841,136.363L42.841,136.363z M124.063,129.855
	c-1.019,0.582-2.533,0.961-1.719,2.584c0.801,1.597,2.045,0.766,3.116,0.203c8.718-4.57,13.792-15.668,11.524-25.252
	c-0.25-1.052-0.424-2.439-2.012-2.152c-1.591,0.287-1.355,1.585-1.064,2.68c0.367,1.379,0.406,2.768,0.464,4.193
	C134.083,119.846,130.93,125.925,124.063,129.855L124.063,129.855z M61.312,130.302c0.739,0.991,1.589,2.201,2.949,1.202
	c1.271-0.936,0.312-1.938-0.349-2.881c-6.775-9.67-6.769-20.225,0.002-29.798c0.648-0.917,1.67-1.905,0.405-2.89
	c-1.345-1.047-2.217,0.107-2.962,1.109c-3.64,4.89-5.559,10.354-5.476,16.2C55.744,119.748,57.606,125.326,61.312,130.302
	L61.312,130.302z"/>
</svg>
