<?xml version="1.0" encoding="utf-8"?>
<!-- Generator: Adobe Illustrator 16.0.0, SVG Export Plug-In . SVG Version: 6.00 Build 0)  -->
<!DOCTYPE svg PUBLIC "-//W3C//DTD SVG 1.1//EN" "http://www.w3.org/Graphics/SVG/1.1/DTD/svg11.dtd">
<svg version="1.1" id="图层_1" xmlns="http://www.w3.org/2000/svg" xmlns:xlink="http://www.w3.org/1999/xlink" x="0px" y="0px"
	 width="200px" height="200px" viewBox="0 0 200 200" enable-background="new 0 0 200 200" xml:space="preserve">
<path fill="#FFFFFF" d="M105.996,115.898c-4.277-4.785-8.555-9.551-12.813-14.336c1.289-2.677,2.07-5.605,2.246-8.556
	c0.605-11.23-9.57-19.355-19.902-19.922c-11.23-0.605-19.336,9.57-19.902,19.922c0.176,3.105,0.957,5.938,2.168,8.478
	c-6.133,7.108-12.266,14.219-18.398,21.348c-2.715-1.914-6.016-3.105-9.766-3.301c-9.648-0.527-16.621,8.242-17.109,17.129
	c-0.527,9.648,8.242,16.641,17.109,17.129c9.648,0.527,16.641-8.242,17.109-17.129c-0.176-3.242-1.113-6.133-2.598-8.613
	c4.668-5.43,9.336-10.84,14.023-16.27c1.27-1.484,2.559-2.969,3.848-4.453c3.457,3.281,8.105,5.332,13.516,5.625
	c5.411,0.293,10.078-1.934,13.555-5.449l12.012,13.418L105.996,115.898L105.996,115.898z M160.879,39.453
	c-15-0.82-25.859,13.066-26.602,27.207c0.527,10.117,5.059,17.285,11.229,21.543c-5.996,9.199-11.991,18.418-17.987,27.617
	c-3.359-1.777-7.09-2.871-10.859-3.086c-3.457-0.195-6.621,0.586-9.473,1.953L96.21,125.8c-1.68,3.359-2.734,7.07-2.93,10.841
	c0.723,13.516,10.156,23.164,23.379,23.887c13.184,0.723,22.715-11.484,23.379-23.887c0.371-6.914-2.617-12.853-7.228-17.07
	c6.152-9.453,12.324-18.906,18.478-28.359c15.137,5.586,35.021-2.598,36.19-24.551C188.281,51.309,174.688,40.215,160.879,39.453z"
	/>
</svg>
