<?xml version="1.0" encoding="utf-8"?>
<!-- Generator: Adobe Illustrator 16.0.0, SVG Export Plug-In . SVG Version: 6.00 Build 0)  -->
<!DOCTYPE svg PUBLIC "-//W3C//DTD SVG 1.1//EN" "http://www.w3.org/Graphics/SVG/1.1/DTD/svg11.dtd">
<svg version="1.1" id="图层_1" xmlns="http://www.w3.org/2000/svg" xmlns:xlink="http://www.w3.org/1999/xlink" x="0px" y="0px"
	 width="200px" height="200px" viewBox="0 0 200 200" enable-background="new 0 0 200 200" xml:space="preserve">
<path fill="#009924" d="M187.438,166.102V54.87c0-13.435-12.09-12.09-12.09-12.09h-68.511c-4.299,0-6.181-2.149-6.181-2.149
	s-2.956-5.105-8.06-13.167c-5.374-8.328-11.822-6.985-11.822-6.985H27.577c-14.777,0-15.044,14.509-15.044,14.509v130.305
	c0,16.12,12.09,14.24,12.09,14.24h151.798C189.316,179.533,187.438,166.1,187.438,166.102z M158.975,88.948H41.091
	c-4.066,0-7.393-3.582-7.393-7.959c0-4.13,3.102-7.96,7.393-7.96h117.882c4.065,0,7.394,3.582,7.394,7.96
	C166.366,85.118,163.266,88.948,158.975,88.948z"/>
</svg>
