<?xml version="1.0" encoding="utf-8"?>
<!-- Generator: Adobe Illustrator 16.0.0, SVG Export Plug-In . SVG Version: 6.00 Build 0)  -->
<!DOCTYPE svg PUBLIC "-//W3C//DTD SVG 1.1//EN" "http://www.w3.org/Graphics/SVG/1.1/DTD/svg11.dtd">
<svg version="1.1" id="图层_1" xmlns="http://www.w3.org/2000/svg" xmlns:xlink="http://www.w3.org/1999/xlink" x="0px" y="0px"
	 width="200px" height="200px" viewBox="0 0 200 200" enable-background="new 0 0 200 200" xml:space="preserve">
<path fill="#FFFFFF" d="M44.832,65.709c0.832,2.637,1.768,5.5,2.805,8.596c1.041,3.095,2.218,6.25,3.531,9.455
	c1.336,3.249,2.826,6.433,4.464,9.541c1.61,3.063,3.415,6.02,5.404,8.852v67.723L9.091,180.531V73.1L44.832,65.709L44.832,65.709z
	 M60.418,59.864c0-0.573-0.036-1.118-0.104-1.632c-0.07-0.541-0.105-1.086-0.104-1.632c0-5.155,1.214-9.968,3.637-14.441
	c2.479-4.537,5.833-8.539,9.868-11.773c4.154-3.377,9-6.045,14.541-7.996c5.545-1.95,11.5-2.922,17.872-2.922
	c6.369,0,12.332,0.973,17.873,2.922c5.55,1.95,10.388,4.619,14.541,7.996c4.153,3.377,7.459,7.305,9.873,11.773
	c2.422,4.468,3.649,9.282,3.649,14.441v2.063c0,0.687-0.082,1.373-0.224,2.064c-0.813,6.011-2.454,11.882-4.872,17.445
	c-2.492,5.676-5.592,11.065-9.246,16.073c-3.871,5.309-8.182,10.282-12.887,14.868c-4.934,4.844-10.136,9.408-15.582,13.668
	c-0.861,0.767-1.973,1.195-3.127,1.209c-1.15-0.014-2.258-0.442-3.117-1.209c-5.554-4.239-10.829-8.832-15.792-13.75
	c-4.72-4.66-9.029-9.718-12.882-15.118c-3.66-5.125-6.76-10.627-9.246-16.414C62.684,71.88,61.11,65.938,60.418,59.864
	L60.418,59.864z M106.127,40.786c-2.754,0-5.327,0.4-7.672,1.205c-2.359,0.8-4.405,1.918-6.136,3.35
	c-1.732,1.432-3.118,3.123-4.155,5.068c-1.027,1.9-1.563,4.026-1.559,6.187c0,2.177,0.518,4.241,1.559,6.186
	c1.037,1.95,2.423,3.641,4.155,5.073c1.823,1.482,3.901,2.619,6.132,3.354c2.476,0.819,5.068,1.225,7.677,1.2
	c2.769,0,5.373-0.4,7.806-1.2c2.422-0.805,4.5-1.923,6.231-3.354c1.731-1.432,3.117-3.123,4.153-5.073
	c1.037-1.95,1.556-4.009,1.556-6.186c0-2.177-0.515-4.241-1.556-6.187c-1.041-1.946-2.422-3.637-4.153-5.068
	c-1.731-1.432-3.81-2.555-6.231-3.35C111.412,41.173,108.775,40.767,106.127,40.786L106.127,40.786z M73.923,116.068
	c3.787,3.47,7.703,6.795,11.741,9.969c3.809,2.973,7.236,5.604,10.286,7.895c3.6,2.642,7,4.996,10.187,7.055
	c1.659-1.137,3.527-2.459,5.604-3.948c1.8-1.261,3.882-2.869,6.231-4.823c2.358-1.945,5.055-4.117,8.1-6.535v54.831l-52.149-10.659
	V116.068L73.923,116.068z M190.909,62.269v107.604l-51.954,10.659v-65.841c0.836-0.683,1.623-1.414,2.386-2.16
	c0.765-0.736,1.563-1.445,2.382-2.149c2.908-2.69,5.487-5.719,7.682-9.019c2.369-3.495,4.465-7.218,6.347-11.172
	c1.836-3.879,3.503-7.835,4.996-11.859c1.454-3.955,2.739-7.65,3.845-11.086L190.909,62.269L190.909,62.269z"/>
<path fill="#FFFFFF" d="M44.832,65.709c0.832,2.637,1.768,5.5,2.805,8.596c1.041,3.095,2.218,6.25,3.531,9.455
	c1.336,3.249,2.826,6.433,4.464,9.541c1.61,3.063,3.415,6.02,5.404,8.852v67.723L9.091,180.531V73.1L44.832,65.709L44.832,65.709z
	 M60.418,59.864c0-0.573-0.036-1.118-0.104-1.632c-0.07-0.541-0.105-1.086-0.104-1.632c0-5.155,1.214-9.968,3.637-14.441
	c2.479-4.537,5.833-8.539,9.868-11.773c4.154-3.377,9-6.045,14.541-7.996c5.545-1.95,11.5-2.922,17.872-2.922
	c6.369,0,12.332,0.973,17.873,2.922c5.55,1.95,10.388,4.619,14.541,7.996c4.153,3.377,7.459,7.305,9.873,11.773
	c2.422,4.468,3.649,9.282,3.649,14.441v2.063c0,0.687-0.082,1.373-0.224,2.064c-0.813,6.011-2.454,11.882-4.872,17.445
	c-2.492,5.676-5.592,11.065-9.246,16.073c-3.871,5.309-8.182,10.282-12.887,14.868c-4.934,4.844-10.136,9.408-15.582,13.668
	c-0.861,0.767-1.973,1.195-3.127,1.209c-1.15-0.014-2.258-0.442-3.117-1.209c-5.554-4.239-10.829-8.832-15.792-13.75
	c-4.72-4.66-9.029-9.718-12.882-15.118c-3.66-5.125-6.76-10.627-9.246-16.414C62.684,71.88,61.11,65.938,60.418,59.864
	L60.418,59.864z M106.127,40.786c-2.754,0-5.327,0.4-7.672,1.205c-2.359,0.8-4.405,1.918-6.136,3.35
	c-1.732,1.432-3.118,3.123-4.155,5.068c-1.027,1.9-1.563,4.026-1.559,6.187c0,2.177,0.518,4.241,1.559,6.186
	c1.037,1.95,2.423,3.641,4.155,5.073c1.823,1.482,3.901,2.619,6.132,3.354c2.476,0.819,5.068,1.225,7.677,1.2
	c2.769,0,5.373-0.4,7.806-1.2c2.422-0.805,4.5-1.923,6.231-3.354c1.731-1.432,3.117-3.123,4.153-5.073
	c1.037-1.95,1.556-4.009,1.556-6.186c0-2.177-0.515-4.241-1.556-6.187c-1.041-1.946-2.422-3.637-4.153-5.068
	c-1.731-1.432-3.81-2.555-6.231-3.35C111.412,41.173,108.775,40.767,106.127,40.786L106.127,40.786z M73.923,116.068
	c3.787,3.47,7.703,6.795,11.741,9.969c3.809,2.973,7.236,5.604,10.286,7.895c3.6,2.642,7,4.996,10.187,7.055
	c1.659-1.137,3.527-2.459,5.604-3.948c1.8-1.261,3.882-2.869,6.231-4.823c2.358-1.945,5.055-4.117,8.1-6.535v54.831l-52.149-10.659
	V116.068L73.923,116.068z M190.909,62.269v107.604l-51.954,10.659v-65.841c0.836-0.683,1.623-1.414,2.386-2.16
	c0.765-0.736,1.563-1.445,2.382-2.149c2.908-2.69,5.487-5.719,7.682-9.019c2.369-3.495,4.465-7.218,6.347-11.172
	c1.836-3.879,3.503-7.835,4.996-11.859c1.454-3.955,2.739-7.65,3.845-11.086L190.909,62.269L190.909,62.269z"/>
</svg>
