<?xml version="1.0" encoding="utf-8"?>
<!-- Generator: Adobe Illustrator 16.0.0, SVG Export Plug-In . SVG Version: 6.00 Build 0)  -->
<!DOCTYPE svg PUBLIC "-//W3C//DTD SVG 1.1//EN" "http://www.w3.org/Graphics/SVG/1.1/DTD/svg11.dtd">
<svg version="1.1" id="图层_1" xmlns="http://www.w3.org/2000/svg" xmlns:xlink="http://www.w3.org/1999/xlink" x="0px" y="0px"
	 width="200px" height="200px" viewBox="0 0 200 200" enable-background="new 0 0 200 200" xml:space="preserve">
<path fill="#FFFFFF" d="M47.205,168.335c-3.467,0-6.679-0.48-9.616-1.443c-7.298-2.391-12.977-7.708-16.879-15.807
	c-6.042-12.54-6.327-25.052-0.848-37.195c1.549-3.43,3.941-7.575,6.477-11.963c6.759-11.7,16.014-27.725,11.971-36.425
	c-1.55-3.337-4.108-5.993-6.813-8.805c-4.747-4.931-10.166-13.842-9.219-19.446c0.79-3.078,2.192-3.958,3.216-4.825
	c1.025-0.868,2.424-2.069,4.857-2.462c2.434-0.394,7.371,0,7.371,0c18.683,2.206,35.77,9.151,49.41,20.087
	c14.137,11.336,24.156,26.683,28.966,44.377c4.681,17.208,0.313,33.548-12.625,47.257c-10.147,10.749-25.684,19.698-42.627,24.548
	C55.953,167.633,51.394,168.335,47.205,168.335z"/>
<path fill="#FFFFFF" d="M29.933,41.408c0.873,2.63,2.764,6.291,6.684,10.363c2.852,2.964,6.084,6.323,8.136,10.737
	c5.599,12.05-4.304,29.196-12.261,42.973c-2.443,4.23-4.751,8.224-6.153,11.332c-4.641,10.28-4.387,20.482,0.771,31.188
	c4.294,8.911,10.786,13.266,20.039,13.268c3.509,0,7.413-0.628,11.745-1.865c23.264-6.663,60.05-27.451,50.354-63.111
	c-8.428-30.997-34.254-53.152-67.952-58.655c-2.224-0.357-9.067-1.254-10.172-0.466C30.017,37.96,29.819,41.065,29.933,41.408z
	 M159.275,170.206c-4.371,0-9.127-1.347-13.963-4.045c-5.699-3.178-10.878-7.9-14.586-13.296
	c-4.073-5.929-5.938-12.173-5.251-17.583c1.039-8.157,4.632-15.532,8.107-22.665c3.919-8.041,7.62-15.638,7.338-23.577
	c0,0,1.574-4.62,3.314-5.589c1.736-0.969,4.847,2.74,4.847,2.74c2.962,4.528,7.228,9.516,11.744,14.796
	c11.385,13.319,24.285,28.413,22.848,43.995c-0.719,7.809-5.032,14.955-12.816,21.243
	C167.57,168.879,163.61,170.206,159.275,170.206z"/>
<path fill="#FFFFFF" d="M147.603,96.594c-1.329,6.741-4.411,13.067-7.42,19.239c-3.364,6.901-6.538,13.418-7.424,20.376
	c-0.95,7.484,6.283,18.047,16.128,23.54c3.256,1.814,11.462,5.527,17.356,0.766c6.27-5.065,9.582-10.366,10.122-16.207
	c1.153-12.497-10.68-26.339-21.121-38.549C152.555,102.607,149.945,99.555,147.603,96.594z"/>
<path fill="#FFFFFF" d="M78.337,134.979l-4.51-5.488c0.367-0.303,0.735-0.604,1.108-0.909c10.499-8.592,17.676-15.47,14.368-25.745
	l6.763-2.177c2.244,6.977,1.177,13.74-3.172,20.104c-3.563,5.215-8.822,9.519-13.46,13.313
	C79.066,134.381,78.7,134.68,78.337,134.979z"/>
</svg>
