<?xml version="1.0" encoding="utf-8"?>
<!-- Generator: Adobe Illustrator 16.0.0, SVG Export Plug-In . SVG Version: 6.00 Build 0)  -->
<!DOCTYPE svg PUBLIC "-//W3C//DTD SVG 1.1//EN" "http://www.w3.org/Graphics/SVG/1.1/DTD/svg11.dtd">
<svg version="1.1" id="图层_1" xmlns="http://www.w3.org/2000/svg" xmlns:xlink="http://www.w3.org/1999/xlink" x="0px" y="0px"
	 width="200px" height="200px" viewBox="0 0 200 200" enable-background="new 0 0 200 200" xml:space="preserve">
<path fill="#FFFFFF" d="M12.5,43.75C12.5,61.009,26.491,75,43.75,75S75,61.009,75,43.75S61.009,12.5,43.75,12.5
	S12.5,26.491,12.5,43.75z"/>
<path fill="#FFFFFF" d="M68.75,100c0,17.259,13.991,31.25,31.25,31.25s31.25-13.991,31.25-31.25S117.259,68.75,100,68.75
	S68.75,82.741,68.75,100z"/>
<path fill="#FFFFFF" d="M125,43.75C125,61.009,138.991,75,156.25,75s31.25-13.991,31.25-31.25S173.509,12.5,156.25,12.5
	S125,26.491,125,43.75z"/>
<path fill="#FFFFFF" d="M12.5,156.25c0,17.259,13.991,31.25,31.25,31.25S75,173.509,75,156.25S61.009,125,43.75,125
	S12.5,138.991,12.5,156.25z"/>
<path fill="#FFFFFF" d="M125,156.25c0,17.259,13.991,31.25,31.25,31.25s31.25-13.991,31.25-31.25S173.509,125,156.25,125
	S125,138.991,125,156.25z"/>
</svg>
