<?xml version="1.0" encoding="utf-8"?>
<!-- Generator: Adobe Illustrator 16.0.0, SVG Export Plug-In . SVG Version: 6.00 Build 0)  -->
<!DOCTYPE svg PUBLIC "-//W3C//DTD SVG 1.1//EN" "http://www.w3.org/Graphics/SVG/1.1/DTD/svg11.dtd">
<svg version="1.1" id="图层_1" xmlns="http://www.w3.org/2000/svg" xmlns:xlink="http://www.w3.org/1999/xlink" x="0px" y="0px"
	 width="200px" height="200px" viewBox="0 0 200 200" enable-background="new 0 0 200 200" xml:space="preserve">
<path fill="#FFFFFF" d="M82.317,141.092l6.764-15.574c0,0,5.996-15.299-14.711-11.636l-58.163,14.627c0,0-13.207,3.761-7.047,14.698
	l33.321,53.459c0,0,10.071,8.729,16.455-2.135l6.656-15.631c-0.012-0.008,108.926,39.164,131.696-70.438
	C197.287,108.459,170.365,171.705,82.317,141.092z M118.502,58.111l-7.175,15.423c0,0-6.399,15.15,14.415,11.975l58.537-13.223
	c0,0,13.313-3.452,7.416-14.539L159.834,3.54c0,0-9.875-9-16.521,1.7l-7.071,15.499c-0.017,0-107.894-41.736-133.532,67.27
	C2.713,88.008,31.286,25.426,118.502,58.111z"/>
</svg>
