<?xml version="1.0" encoding="utf-8"?>
<!-- Generator: Adobe Illustrator 16.0.0, SVG Export Plug-In . SVG Version: 6.00 Build 0)  -->
<!DOCTYPE svg PUBLIC "-//W3C//DTD SVG 1.1//EN" "http://www.w3.org/Graphics/SVG/1.1/DTD/svg11.dtd">
<svg version="1.1" id="图层_1" xmlns="http://www.w3.org/2000/svg" xmlns:xlink="http://www.w3.org/1999/xlink" x="0px" y="0px"
	 width="200px" height="200px" viewBox="0 0 200 200" enable-background="new 0 0 200 200" xml:space="preserve">
<path fill="#FFFFFF" d="M33.2,79.388c7.525,5.762,16.362,9.137,25.662,11.425C82.6,96.638,106.6,96.95,130.675,93.1
	c11.663-1.863,22.875-5.138,32.888-11.3c5.875-3.612,10.801-8.075,13.688-14.175c1.987-4.175,0.325,1.163,1.088-23.962
	c0.199-6.45-2.7-11.363-7.851-15.337c-5.213-4.013-11.237-6.6-17.575-8.613c-17.063-5.438-34.763-6.987-50.563-7.212
	c-19.086,0.075-34.987,1.85-48.187,5.275C45.587,20.013,37.25,22.8,30.2,28.125c-5.35,4.025-8.375,9.038-8.1,15.7
	c0.237,5.65,0.325,11.325-0.038,16.975c-0.313,4.988,1.587,9.038,4.837,12.675C28.8,75.612,30.9,77.638,33.2,79.388L33.2,79.388z
	 M140.438,80.763c-4.299,0.05-7.537-3.038-7.524-7.163c0.024-4.788,4.601-9.075,9.649-9.038c4.201,0.038,7.389,3.063,7.4,7.038
	C149.986,76.45,145.55,80.712,140.438,80.763z M38.413,37.763c6.2-4.663,13.625-6.863,21.175-8.6
	c19.337-4.462,38.962-5.238,58.738-3.513c11.513,1,22.875,2.725,33.587,6.913c3.875,1.513,7.588,3.638,10.938,6.013
	c3.213,2.287,2.976,4.337-0.051,6.925c-4.188,3.575-9.337,5.538-14.611,7.188C132.55,57.575,116.375,59,100,59.038
	c-16.3-0.075-32.425-1.413-47.913-6.45c-4.764-1.616-9.321-3.79-13.575-6.475C34.112,43.388,34.275,40.875,38.413,37.763
	L38.413,37.763z M22.038,106.662c-0.375,5.449,1.987,9.574,5.65,13.313c1.725,1.764,3.6,3.414,5.6,4.889
	c7.887,5.838,16.975,9.412,26.563,11.938c21.55,5.676,43.437,6.237,65.461,3.163c12.125-1.7,23.838-4.851,34.576-10.551
	c6.986-3.712,13.211-8.274,17.036-15.101c0.812-1.455,1.259-3.084,1.3-4.75c0.477-26.125,0.014-25.138-1.037-24.149
	c-9.924,9.262-22.088,14.837-35.35,18.5c-21.051,5.813-42.5,6.763-64.138,3.875C4.725,98.038,25.05,62.962,22.038,106.662z
	 M142.65,111.787c4.25,0.038,7.361,3.038,7.324,7.038c-0.051,4.987-4.563,9.112-9.875,9.013c-4.199-0.074-7.238-3.113-7.188-7.163
	C132.975,115.838,137.475,111.736,142.65,111.787L142.65,111.787z M177.188,131.1c-9.924,9.264-22.088,14.838-35.35,18.5
	c-21.051,5.813-42.5,6.764-64.138,3.875c-72.988-9.75-52.663-44.824-55.675-1.125c-0.375,5.438,1.988,9.575,5.65,13.313
	c1.725,1.763,3.6,3.413,5.6,4.888c7.888,5.838,16.975,9.413,26.563,11.938c21.55,5.675,43.438,6.237,65.462,3.163
	c12.125-1.7,23.839-4.852,34.575-10.551c6.986-3.713,13.213-8.274,17.037-15.088c0.813-1.455,1.258-3.084,1.301-4.75
	C178.7,129.111,178.236,130.111,177.188,131.1L177.188,131.1z M140.1,173.514c-4.199-0.076-7.236-3.113-7.188-7.164
	c0.063-4.836,4.563-8.949,9.738-8.887c4.25,0.037,7.361,3.037,7.324,7.037C149.925,169.475,145.412,173.6,140.1,173.514
	L140.1,173.514z"/>
</svg>
