<?xml version="1.0" encoding="utf-8"?>
<!-- Generator: Adobe Illustrator 16.0.0, SVG Export Plug-In . SVG Version: 6.00 Build 0)  -->
<!DOCTYPE svg PUBLIC "-//W3C//DTD SVG 1.1//EN" "http://www.w3.org/Graphics/SVG/1.1/DTD/svg11.dtd">
<svg version="1.1" id="图层_1" xmlns="http://www.w3.org/2000/svg" xmlns:xlink="http://www.w3.org/1999/xlink" x="0px" y="0px"
	 width="200px" height="200px" viewBox="0 0 200 200" enable-background="new 0 0 200 200" xml:space="preserve">
<path fill="#FFFFFF" d="M18.5,47.607c0,16.075,13.032,29.107,29.107,29.107s29.107-13.032,29.107-29.107S63.683,18.5,47.607,18.5
	S18.5,31.532,18.5,47.607z"/>
<path fill="#FFFFFF" d="M70.893,100c0,16.076,13.032,29.106,29.107,29.106s29.106-13.03,29.106-29.106
	c0-16.076-13.031-29.107-29.106-29.107S70.893,83.924,70.893,100z"/>
<path fill="#FFFFFF" d="M123.285,47.607c0,16.075,13.032,29.107,29.108,29.107c16.075,0,29.106-13.032,29.106-29.107
	S168.469,18.5,152.394,18.5C136.317,18.5,123.285,31.532,123.285,47.607z"/>
<path fill="#FFFFFF" d="M18.5,152.394c0,16.076,13.032,29.106,29.107,29.106s29.107-13.03,29.107-29.106
	s-13.032-29.108-29.107-29.108S18.5,136.317,18.5,152.394z"/>
<path fill="#FFFFFF" d="M123.285,152.394c0,16.076,13.032,29.106,29.108,29.106c16.075,0,29.106-13.03,29.106-29.106
	s-13.031-29.108-29.106-29.108C136.317,123.285,123.285,136.317,123.285,152.394z"/>
</svg>
