<?xml version="1.0" encoding="utf-8"?>
<!-- Generator: Adobe Illustrator 16.0.0, SVG Export Plug-In . SVG Version: 6.00 Build 0)  -->
<!DOCTYPE svg PUBLIC "-//W3C//DTD SVG 1.1//EN" "http://www.w3.org/Graphics/SVG/1.1/DTD/svg11.dtd">
<svg version="1.1" id="图层_1" xmlns="http://www.w3.org/2000/svg" xmlns:xlink="http://www.w3.org/1999/xlink" x="0px" y="0px"
	 width="200px" height="200px" viewBox="0 0 200 200" enable-background="new 0 0 200 200" xml:space="preserve">
<path fill="#FFFFFF" d="M95.482,105.428c0.894-14.191-3.763-24.345-13.057-31.063c-8.281-5.979-20.188-9.123-33.777-9.449
	c-2.113,5.515-7.439,9.415-13.693,9.415c-8.092,0-14.655-6.563-14.655-14.655s6.563-14.655,14.655-14.655
	c7.388,0,13.504,5.481,14.518,12.594c14.689,0.446,27.729,3.951,37.248,10.824c8.075,5.824,13.298,13.848,15.291,23.933
	c0.188-0.447,0.36-0.894,0.55-1.357c4.243-10.171,5.601-19.328,3.797-27.146c-1.89-8.247-7.319-15.136-16.837-20.583
	c-2.062,1.1-4.415,1.735-6.924,1.735c-8.092,0-14.655-6.563-14.655-14.655c0-8.092,6.563-14.655,14.655-14.655
	c8.092,0,14.655,6.546,14.655,14.655c0,2.834-0.808,5.463-2.182,7.714c10.085,6.288,16.201,14.449,18.436,24.156
	c2.182,9.501,0.601,20.136-4.176,31.612c-4.329,10.394-6.288,18.383-5.411,22.662c0.344,1.649,0.979,2.371,2.285,2.663
	c2.147,0.48,5.772-0.172,10.841-2.251c6.734-2.749,14.156-13.04,18.229-26.27c4.484-14.586,4.467-30.685-0.825-45.649
	c-0.172,0-0.36,0.017-0.532,0.017c-8.092,0-14.655-6.563-14.655-14.655c0-8.092,6.563-14.655,14.655-14.655
	s14.655,6.563,14.655,14.655c0,5.326-2.835,9.999-7.096,12.559c4.656,13.384,5.498,27.541,2.989,40.958
	c5.858-0.017,8.436-0.344,11.442-1.667c0-0.172-0.018-0.361-0.018-0.533c0-8.092,6.563-14.655,14.655-14.655
	c8.093,0,14.655,6.563,14.655,14.655c0,8.092-6.563,14.655-14.655,14.655c-5.325,0-9.981-2.835-12.542-7.079
	c-1.752,0.705-3.47,1.168-5.309,1.46c-2.354,0.378-4.656,0.481-8.985,0.481c-0.326,0-0.636-0.034-0.928-0.12
	c-0.154,0.584-0.326,1.151-0.516,1.718c-4.639,15.136-13.35,27.163-22.455,30.891c-3.385,1.392-6.391,2.284-9.054,2.697
	c1.271,0.876,2.663,1.614,4.227,2.25c7.696,3.162,19.534,3.711,37.608,1.151c1.46-6.563,7.318-11.477,14.312-11.477
	c8.092,0,14.654,6.563,14.654,14.655s-6.563,14.655-14.654,14.655c-6.649,0-12.25-4.416-14.054-10.48
	c-18.83,2.594-31.647,1.941-40.65-1.735c-4.243-1.735-7.645-4.141-10.583-7.319c0.498,7.337,2.165,13.384,4.88,18.144
	c3.848,6.734,9.827,10.875,17.609,12.49c2.595-2.337,6.031-3.763,9.811-3.763c8.092,0,14.655,6.563,14.655,14.655
	c0,8.092-6.563,14.655-14.655,14.655s-14.672-6.529-14.672-14.639c0-1.528,0.24-3.006,0.67-4.381
	c-8.505-2.405-15.309-7.542-19.775-15.359c-4.656-8.144-6.649-18.968-5.824-32.42c-0.498-0.859-1.203-2.079-1.495-2.56
	c-0.773-1.307-1.426-2.389-2.096-3.402c-3.625-5.601-7.56-9.725-13.194-13.126c-3.162,1.752-6.581,5.395-9.141,10.033
	c-3.144,5.688-4.742,12.25-4.261,18.658c0.396,5.274,1.941,11.322,4.295,17.198c1.77,4.398,3.9,8.436,5.961,11.408
	c1.426-0.464,2.955-0.722,4.553-0.722c8.092,0,14.655,6.563,14.655,14.655c0,8.092-6.563,14.655-14.655,14.655
	c-8.092,0-14.672-6.529-14.672-14.639c0-3.865,1.495-7.37,3.935-9.981c-5.67-8.247-10.583-21.355-11.374-32.025
	c-0.584-7.902,1.34-15.857,5.154-22.764c2.199-3.952,4.931-7.388,7.886-9.965c-8.195-2.285-17.645-0.618-25.324,4.793
	c-9.638,6.786-15.325,18.418-15.153,33.399c7.268,0.876,12.903,7.062,12.903,14.552c0,8.093-6.563,14.655-14.655,14.655
	c-8.092,0-14.655-6.563-14.655-14.655c0-6.133,3.762-11.391,9.105-13.572c-0.43-17.765,6.391-32.008,18.246-40.375
	c11.391-8.023,26.046-9.397,37.608-3.487C85.603,94.14,90.912,98.951,95.482,105.428L95.482,105.428z"/>
</svg>
