<?xml version="1.0" encoding="utf-8"?>
<!-- Generator: Adobe Illustrator 16.0.0, SVG Export Plug-In . SVG Version: 6.00 Build 0)  -->
<!DOCTYPE svg PUBLIC "-//W3C//DTD SVG 1.1//EN" "http://www.w3.org/Graphics/SVG/1.1/DTD/svg11.dtd">
<svg version="1.1" id="图层_1" xmlns="http://www.w3.org/2000/svg" xmlns:xlink="http://www.w3.org/1999/xlink" x="0px" y="0px"
	 width="200px" height="200px" viewBox="0 0 200 200" enable-background="new 0 0 200 200" xml:space="preserve">
<path fill="#FFFFFF" d="M160.67,70.221c-4.905-1.851-10.644-1.666-15.826-1.388c-5.923,0.278-11.846,1.296-17.492,3.239
	c-7.589,2.685-14.529,6.849-21.102,11.477c6.201-6.294,12.31-12.865,15.456-21.102c3.979-10.365,6.479-22.583,3.055-33.411
	c-3.055-9.625-12.495-16.011-22.582-16.381c-8.978-0.37-17.585,4.442-20.547,12.679c-5.646-5.46-14.993-6.571-22.397-4.628
	c-11.106,2.87-15.178,12.865-13.142,23.508c2.222,11.939,10.921,21.102,19.528,28.968c5.46,4.998,11.292,9.718,17.77,13.143
	c-4.443-0.093-8.885-0.093-13.327,0.092c-8.608,0.278-17.308,1.296-25.359,4.627c-6.664,2.684-13.512,7.312-17.307,13.513
	c-3.795,6.108-2.869,16.474-0.093,22.768c3.424,7.682,10.088,8.978,17.77,8.978c0.74,0,5.831-0.556,6.201-0.277
	c0.74,0.463,0.833,4.997,1.018,5.923c0.925,4.072,2.313,8.144,4.905,11.477c4.906,6.479,11.939,7.403,19.621,7.033
	c7.404-0.277,12.957-4.071,16.196-10.644c8.237-15.733,4.813-33.41,5.831-50.532c8.978,28.135,8.885,57.382,8.33,86.813
	c-0.092,2.499,3.795,2.499,3.888,0c0.555-28.506,0.647-56.826-7.313-84.129c4.351,7.589,8.793,15.086,13.42,22.583
	c2.87,4.627,5.553,9.995,9.996,13.42c3.795,2.961,8.515,4.35,13.142,5.46c4.535,1.019,9.07,1.48,13.328-0.74
	c3.794-1.943,6.663-5.368,8.515-9.162c3.794-7.867,3.331-17.122-0.463-24.804c7.127-2.222,11.661-12.217,12.217-18.974
	C174.646,81.05,168.63,73.183,160.67,70.221z M86.679,83.511c0-0.002,0-0.004,0-0.006c2.785,1.366,5.692,2.479,8.748,3.251
	C92.371,85.985,89.465,84.872,86.679,83.511z M87.462,44.584c0.105,0.303,0.136,0.584,0.109,0.84
	c0.012-0.231-0.016-0.479-0.109-0.747c-0.625-1.737-1.146-3.488-1.573-5.256C86.323,41.157,86.848,42.877,87.462,44.584z
	 M84.506,30.4c0.009,0.169,0.026,0.336,0.038,0.504c-0.013-0.16-0.031-0.32-0.043-0.48C84.504,30.415,84.503,30.409,84.506,30.4z
	 M53.108,52.232l0.053,0.196c-2.146-4.082-3.781-9.375-3.678-14.302C49.402,42.986,51.002,48.189,53.108,52.232z M56.097,139.592
	l0.056,0.018c0.136,1.097,0.258,2.197,0.455,3.227C56.374,141.804,56.236,140.699,56.097,139.592z M89.296,149.231
	c0.784-1.31,1.444-2.768,2.017-4.278l0.051-0.045C90.78,146.442,90.105,147.918,89.296,149.231z M132.832,136.73
	c0.009,0.015,0.017,0.031,0.023,0.048c-0.755-0.394-1.491-0.821-2.184-1.313C131.358,135.942,132.084,136.354,132.832,136.73z"/>
</svg>
