<?xml version="1.0" encoding="utf-8"?>
<!-- Generator: Adobe Illustrator 16.0.0, SVG Export Plug-In . SVG Version: 6.00 Build 0)  -->
<!DOCTYPE svg PUBLIC "-//W3C//DTD SVG 1.1//EN" "http://www.w3.org/Graphics/SVG/1.1/DTD/svg11.dtd">
<svg version="1.1" id="图层_1" xmlns="http://www.w3.org/2000/svg" xmlns:xlink="http://www.w3.org/1999/xlink" x="0px" y="0px"
	 width="200px" height="200px" viewBox="0 0 200 200" enable-background="new 0 0 200 200" xml:space="preserve">
<path fill="#FFFFFF" d="M131.162,189.93c-10.749,0.351-20.342-9.104-19.333-20.898c0.488-5.755,3.174-10.456,7.882-13.881
	c0.824-0.601,0.757-0.942,0.202-1.64c-5.501-6.935-10.973-13.889-16.414-20.86c-0.595-0.764-1.072-0.841-1.896-0.41
	c-4.085,2.147-8.639,3.254-13.255,3.224c-7.467-0.034-14.228-2.313-19.967-7.272c-0.43-0.37-0.894-0.703-1.309-1.088
	c-1.787-1.642-1.792-1.658-3.671-0.182c-6.803,5.354-13.605,10.713-20.409,16.071c-0.708,0.569-0.831,0.942-0.367,1.8
	c5.142,9.336,1.742,21.073-7.594,26.215c-1.092,0.602-2.24,1.096-3.427,1.476c-11.161,3.632-23.11-3.754-24.874-15.366
	c-1.602-10.564,5.068-20.071,15.614-22.015c6.323-1.163,11.897,0.638,16.622,4.974c0.677,0.622,1.039,0.771,1.824,0.146
	c7.208-5.748,14.456-11.46,21.738-17.138c0.834-0.647,0.285-1.035-0.02-1.5c-2.336-3.525-3.889-7.509-4.553-11.687
	c-1.392-8.685,0.589-16.569,5.873-23.536c5.447-7.176,12.843-11.01,21.761-11.931c0.854-0.089,1.138-0.339,1.121-1.184
	c-0.024-7.683-0.024-15.367,0-23.049c0-0.88-0.315-1.102-1.138-1.139c-8.714-0.538-16.09-7.455-17.358-16.242
	c-1.244-8.537,2.899-16.756,10.631-20.27c7.522-3.415,14.675-2.538,21.078,2.877c4.511,3.816,6.736,8.847,6.63,14.633
	c-0.167,9.179-6.069,16.559-15.169,18.664c-1.066,0.248-1.249,0.671-1.246,1.602c0.024,7.589,0.024,15.177,0,22.765
	c0,0.937,0.227,1.304,1.211,1.423c5.099,0.652,9.863,2.277,14.089,5.262c7.398,5.228,11.714,12.333,12.938,21.316
	c0.234,1.88,0.3,3.777,0.195,5.669c-0.049,1.137,0.335,1.557,1.422,1.801c9.834,2.222,19.686,4.521,29.54,6.799
	c1.841,0.426,3.699,0.837,5.521,1.303c0.726,0.186,1.184,0.125,1.649-0.589c3.501-5.353,8.375-8.426,14.83-9.003
	c9.767-0.866,18.602,5.803,20.448,15.431c2.108,11.272-5.156,21.453-16.618,22.913c-10.162,1.295-19.144-5.483-21.168-15.277
	c-0.63-2.834-0.55-5.78,0.238-8.574c0.333-1.138-0.051-1.423-1.084-1.667c-10.27-2.346-20.541-4.71-30.811-7.098
	c-1.139-0.268-2.308-0.51-3.446-0.826c-0.853-0.234-1.28-0.144-1.544,0.854c-1.476,5.68-4.603,10.797-8.985,14.701
	c-0.611,0.594-1.265,1.141-1.96,1.636c-0.788,0.524-0.623,0.931-0.122,1.563c5.546,7.019,11.076,14.048,16.587,21.084
	c0.569,0.743,1.139,0.887,2.071,0.596c11.341-3.569,22.922,3.358,24.958,15.057C152.137,179.225,143.017,190.081,131.162,189.93z"/>
</svg>
