<?xml version="1.0" encoding="utf-8"?>
<!-- Generator: Adobe Illustrator 16.0.0, SVG Export Plug-In . SVG Version: 6.00 Build 0)  -->
<!DOCTYPE svg PUBLIC "-//W3C//DTD SVG 1.1//EN" "http://www.w3.org/Graphics/SVG/1.1/DTD/svg11.dtd">
<svg version="1.1" id="图层_1" xmlns="http://www.w3.org/2000/svg" xmlns:xlink="http://www.w3.org/1999/xlink" x="0px" y="0px"
	 width="200px" height="200px" viewBox="0 0 200 200" enable-background="new 0 0 200 200" xml:space="preserve">
<path fill="#009924" d="M51.256,70.652c-10.662,0-19.394-8.731-19.394-19.395c0-10.663,8.731-19.395,19.394-19.395
	c10.662,0,19.393,8.732,19.393,19.395C70.649,61.921,61.918,70.652,51.256,70.652z M177.357,12.447H22.145
	c-5.331,0-9.697,4.366-9.697,9.697V80.35c0,5.332,4.366,9.697,9.697,9.697h155.212c5.33,0,9.697-4.366,9.697-9.697V22.144
	C187.055,16.813,182.688,12.447,177.357,12.447z M51.256,167.669c-10.662,0-19.394-8.731-19.394-19.396
	c0-10.662,8.731-19.395,19.394-19.395c10.662,0,19.393,8.732,19.393,19.395C70.649,158.938,61.918,167.669,51.256,167.669z
	 M177.357,109.463H22.145c-5.331,0-9.697,4.367-9.697,9.697v58.206c0,5.331,4.366,9.696,9.697,9.696h155.212
	c5.33,0,9.697-4.365,9.697-9.696V119.16C187.055,113.83,182.688,109.463,177.357,109.463z"/>
</svg>
