<?xml version="1.0" encoding="utf-8"?>
<!-- Generator: Adobe Illustrator 16.0.0, SVG Export Plug-In . SVG Version: 6.00 Build 0)  -->
<!DOCTYPE svg PUBLIC "-//W3C//DTD SVG 1.1//EN" "http://www.w3.org/Graphics/SVG/1.1/DTD/svg11.dtd">
<svg version="1.1" id="图层_1" xmlns="http://www.w3.org/2000/svg" xmlns:xlink="http://www.w3.org/1999/xlink" x="0px" y="0px"
	 width="200px" height="200px" viewBox="0 0 200 200" enable-background="new 0 0 200 200" xml:space="preserve">
<g>
	<path fill="#FFFFFF" d="M16.9,23.993v47.999h167.2V23.993H16.9z M152.631,55.78c-4.132,0-7.471-3.497-7.471-7.788
		c0-4.449,3.338-7.788,7.471-7.788c4.134,0,7.471,3.497,7.471,7.788C160.102,52.285,156.765,55.78,152.631,55.78z"/>
	<path fill="#FFFFFF" d="M16.9,89.633v48.634h167.2V89.633H16.9z M152.631,122.374c-4.132,0-7.471-3.338-7.471-7.628
		c0-4.132,3.338-7.63,7.471-7.63c4.134,0,7.471,3.337,7.471,7.63C160.102,118.877,156.765,122.374,152.631,122.374z"/>
	<path fill="#FFFFFF" d="M95.097,138.427h9.219v29.403h-9.219V138.427z"/>
	<path fill="#FFFFFF" d="M38.197,167.83H161.69v9.376H38.197V167.83z"/>
</g>
</svg>
