<?xml version="1.0" encoding="utf-8"?>
<!-- Generator: Adobe Illustrator 16.0.0, SVG Export Plug-In . SVG Version: 6.00 Build 0)  -->
<!DOCTYPE svg PUBLIC "-//W3C//DTD SVG 1.1//EN" "http://www.w3.org/Graphics/SVG/1.1/DTD/svg11.dtd">
<svg version="1.1" id="图层_1" xmlns="http://www.w3.org/2000/svg" xmlns:xlink="http://www.w3.org/1999/xlink" x="0px" y="0px"
	 width="200px" height="200px" viewBox="0 0 200 200" enable-background="new 0 0 200 200" xml:space="preserve">
<path fill="#FFFFFF" d="M147.099,90.816c-5.271,0-9.546-4.274-9.546-9.547V62.175H80.269c-5.272,0-9.547-4.275-9.547-9.548
	s4.275-9.547,9.547-9.547h66.83c5.272,0,9.549,4.274,9.549,9.547v28.642C156.647,86.542,152.371,90.816,147.099,90.816z"/>
<path fill="#FFFFFF" d="M118.459,157.647H51.627c-5.273,0-9.547-4.276-9.547-9.549v-28.64c0-5.272,4.274-9.548,9.547-9.548
	s9.548,4.275,9.548,9.548v19.094h57.284c5.271,0,9.546,4.274,9.546,9.546C128.005,153.371,123.729,157.647,118.459,157.647z"/>
<path fill="#FFFFFF" d="M80.269,90.816H22.986c-5.273,0-9.547-4.274-9.547-9.547V23.986c0-5.273,4.274-9.547,9.547-9.547h57.283
	c5.273,0,9.547,4.274,9.547,9.547v57.283C89.816,86.542,85.542,90.816,80.269,90.816z"/>
<path fill="#FFFFFF" d="M175.741,186.288h-57.282c-5.272,0-9.548-4.275-9.548-9.547v-57.282c0-5.272,4.275-9.548,9.548-9.548h57.282
	c5.271,0,9.547,4.275,9.547,9.548v57.282C185.288,182.013,181.013,186.288,175.741,186.288z"/>
</svg>
